<?xml version="1.0" encoding="utf-8"?>
<svg xmlns="http://www.w3.org/2000/svg" x="0" y="0" viewBox="0 0 128 128" width="128" height="128">
  <path d="M11.2,80.8c-0.8,2-1.2,4.2-1.2,6.4c0,9.5,7.5,17.4,16.9,18c3,6.1,9.2,10,16.1,10c9.9,0,18-8.1,18-18v-71 c0-6.6-5.4-12-12-12c-5.1,0-9.4,3.1-11.2,7.6c-1.2-0.4-2.5-0.6-3.8-0.6c-7.2,0-13,5.8-13,13c0,0.1,0,0.2,0,0.3 c-6.3,1.4-11,7-11,13.7c0,1.9,0.4,3.8,1.1,5.5C7.2,57.1,5,62,5,67.2C5,72.5,7.3,77.4,11.2,80.8z M41,62.4v4.9 c0,8.7-6.2,16-14.5,17.7c-1.8,0.4-3.5-1-3.5-2.9v-0.2c0-1.4,1-2.6,2.4-2.9c5.5-1.1,9.6-6,9.6-11.8v-5c0-1.9,1.7-3.3,3.6-2.9 C40,59.6,41,60.9,41,62.4z M24.7,39.5c1.2-1.5,3.5-1.5,4.7,0c1.3,1.7,3.3,2.7,5.5,2.8c1.5,0,2.9,1.2,3,2.8c0.1,1.8-1.3,3.2-3,3.2 c-4.2,0-8-2-10.3-5.1C23.9,42,23.9,40.5,24.7,39.5z M16.4,54.2c0.2-1.5,1.5-2.6,3-2.6H23c1.9,0,3.3,1.7,2.9,3.6 c-0.3,1.4-1.6,2.4-3.1,2.4h-3.5C17.6,57.6,16.2,56,16.4,54.2z" fill="#FFA300" />
  <path d="M102,23c-5.5,0-10,4.5-10,10c0,1.7,0.4,3.2,1.1,4.6L84.8,46H71c-1.7,0-3,1.3-3,3s1.3,3,3,3h15c0.8,0,1.6-0.3,2.1-0.9 l9.3-9.3c1.4,0.7,3,1.1,4.6,1.1c5.5,0,10-4.5,10-10S107.5,23,102,23z M102,37c-2.2,0-4-1.8-4-4s1.8-4,4-4s4,1.8,4,4 S104.2,37,102,37z" fill="#FFA300" />
  <path d="M121,64c0-5.5-4.5-10-10-10c-4.5,0-8.3,2.9-9.5,7H71c-1.7,0-3,1.3-3,3s1.3,3,3,3h30.5c1.3,4.1,5.1,7,9.5,7 C116.5,74,121,69.5,121,64z M111,68c-2.2,0-4-1.8-4-4s1.8-4,4-4s4,1.8,4,4S113.2,68,111,68z" fill="#FFA300" />
  <path d="M76,29c5.5,0,10-4.5,10-10S81.5,9,76,9s-10,4.5-10,10S70.5,29,76,29z M76,15c2.2,0,4,1.8,4,4s-1.8,4-4,4s-4-1.8-4-4 S73.8,15,76,15z" fill="#FFA300" />
  <path d="M102,105c5.5,0,10-4.5,10-10s-4.5-10-10-10c-1.7,0-3.2,0.4-4.6,1.1l-9.3-9.3C87.6,76.3,86.8,76,86,76H71c-1.7,0-3,1.3-3,3 s1.3,3,3,3h13.8l8.4,8.4c-0.7,1.4-1.1,3-1.1,4.6C92,100.5,96.5,105,102,105z M102,91c2.2,0,4,1.8,4,4s-1.8,4-4,4s-4-1.8-4-4 S99.8,91,102,91z" fill="#FFA300" />
  <path d="M86,109c0-5.5-4.5-10-10-10s-10,4.5-10,10s4.5,10,10,10S86,114.5,86,109z M72,109c0-2.2,1.8-4,4-4s4,1.8,4,4s-1.8,4-4,4 S72,111.2,72,109z" fill="#FFA300" />
</svg>