<svg xmlns="http://www.w3.org/2000/svg" viewBox="0 0 30 30">
  <path d="M3.5 23A0.5 0.5 0 1 0 3.5 24A0.5 0.5 0 1 0 3.5 23Z" fill="#FFA300" />
  <path d="M9,20c0-1.121,0.218-2.194,0.601-3.2L4,14c0,0,4.078,5.434-0.678,9.034l0.261,0.956c2.276,0,4.163-1.133,5.57-2.413C9.061,21.062,9,20.538,9,20z" fill="#FFA300" />
  <path d="M13 3C6.925 3 2 7.477 2 13c0 4.73 3.617 8.684 8.471 9.724C10.167 21.864 10 20.949 10 20c0-1.438.386-2.793 1.055-4H9c-.552 0-1-.448-1-1 0-.552.448-1 1-1h3.568c.812-.814 1.782-1.495 2.872-2H9c-.552 0-1-.448-1-1 0-.552.448-1 1-1h8c.552 0 1 .448 1 1 0 .067-.026.126-.038.189C18.62 11.066 19.302 11 20 11c1.382 0 2.7.254 3.899.713C23.203 6.799 18.594 3 13 3zM27.5 27A.5.5 0 1 0 27.5 28 .5.5 0 1 0 27.5 27z" fill="#FFA300" />
  <path d="M25.537,23.997c0.271,1.051,0.911,2.106,2.141,3.038l-0.261,0.956c-2.276,0-4.163-1.133-5.57-2.413C21.939,25.062,25.537,23.997,25.537,23.997z" fill="#FFA300" />
  <path d="M20,13c-4.418,0-8,3.134-8,7c0,3.866,3.582,7,8,7s8-3.134,8-7C28,16.134,24.418,13,20,13z M23,23h-6c-0.552,0-1-0.448-1-1c0-0.552,0.448-1,1-1h6c0.552,0,1,0.448,1,1C24,22.552,23.552,23,23,23z M23,19h-6c-0.552,0-1-0.448-1-1c0-0.552,0.448-1,1-1h6c0.552,0,1,0.448,1,1C24,18.552,23.552,19,23,19z" fill="#FFA300" />
</svg>