<?xml version="1.0" encoding="utf-8"?>
<svg xmlns="http://www.w3.org/2000/svg" viewBox="0 0 24 24" width="48" height="48">
  <path fill="none" stroke="#FFA300" stroke-linejoin="round" stroke-width="2" d="M15.276,6.267l0.106,0.69c0.267,1.737,1.149,3.32,2.486,4.46L18.552,12l-0.497,0.401c-1.368,1.104-2.294,2.662-2.608,4.392l-0.171,0.94l0,0c-2.062-1.031-4.489-1.031-6.552,0l0,0l-0.327-1.308c-0.322-1.288-0.988-2.464-1.927-3.403L5.448,12l1.022-1.022c0.939-0.939,1.605-2.115,1.927-3.403l0.327-1.308l0,0C10.786,7.298,13.214,7.298,15.276,6.267L15.276,6.267z" />
  <path d="M17.868,11.417c-1.337-1.14-2.219-2.723-2.486-4.46l-0.106-0.69c-2.062,1.031-4.49,1.031-6.552,0L8.397,7.575c-0.322,1.288-0.988,2.464-1.927,3.403L5.448,12l1.022,1.022c0.939,0.939,1.605,2.115,1.927,3.403l0.327,1.307c2.062-1.031,4.49-1.031,6.552,0l0.171-0.94c0.314-1.729,1.24-3.288,2.608-4.392l0.497-0.4L17.868,11.417z M12,14c-1.105,0-2-0.896-2-2s0.895-2,2-2s2,0.896,2,2S13.105,14,12,14z" fill="#FFA300" />
  <path d="M8.293,7.707c-1.879-1.879-2.218-3.13-2.279-4.651C5.99,2.482,6.439,2,7.013,2l0,0C7.546,2,7.99,2.42,8.01,2.953C8.058,4.21,8.314,4.9,9.707,6.293L8.293,7.707z" fill="#FFA300" />
  <path d="M16,7h-2V3c0-0.552,0.448-1,1-1l0,0c0.552,0,1,0.448,1,1V7z" fill="#FFA300" />
  <path d="M16.96,22h-0.005c-0.517,0-0.939-0.393-0.991-0.908c-0.094-0.924-0.434-2.148-1.671-3.385l1.414-1.414c1.669,1.669,2.123,3.391,2.247,4.599C18.015,21.485,17.557,22,16.96,22z" fill="#FFA300" />
  <path d="M9,22L9,22c-0.552,0-1-0.448-1-1v-4h2v4C10,21.552,9.552,22,9,22z" fill="#FFA300" />
  <path d="M5.638,13H3c-0.552,0-1-0.448-1-1l0,0c0-0.552,0.448-1,1-1h2.638V13z" fill="#FFA300" />
  <path d="M6,12H4v-1c0-0.882-0.574-1.633-1.368-1.898C2.237,8.971,2,8.565,2,8.149l0,0c0-0.656,0.639-1.152,1.262-0.945C4.851,7.733,6,9.235,6,11V12z" fill="#FFA300" />
  <path d="M21,13h-3v-2h3c0.552,0,1,0.448,1,1l0,0C22,12.552,21.552,13,21,13z" fill="#FFA300" />
  <path d="M22,15.831c0,0.659-0.644,1.166-1.265,0.948C19.235,16.25,18,14.821,18,13v-1h2v1c0,0.738,0.64,1.575,1.408,1.881C21.783,15.03,22,15.428,22,15.831L22,15.831z" fill="#FFA300" />
  <path d="M5.103,22L5.103,22c-0.643,0-1.108-0.598-0.975-1.228C4.64,18.348,6.63,16.5,9,16.5v2c-1.416,0-2.606,1.099-2.919,2.669C5.986,21.645,5.588,22,5.103,22z" fill="#FFA300" />
  <path d="M15,7V5c1.412,0,2.6-0.729,2.917-2.186C18.018,2.348,18.407,2,18.883,2l0,0c0.645,0,1.122,0.611,0.962,1.236C19.294,5.397,17.33,7,15,7z" fill="#FFA300" />
</svg>