<svg xmlns="http://www.w3.org/2000/svg" width="50" height="50" viewBox="0 0 50 50">
  <path fill="none" stroke="#FFA300" stroke-linecap="round" stroke-width="2" d="M45.018 25C48 28 48 34 42 36c3 6-1.369 8-6 8-.99 3.975-5.145 5.013-6.997 5C26.722 48.984 25 47.32 25 45c0-6.001 0-28.343 0-38.342C25 2.14 26.316 1 29.003 1c6.006 0 9.31 3.564 10.009 6C44.955 7.724 49.896 14.875 45.018 25zM45.18 24c0 0-1.18 5-9.18 5M33 13c0 2 2 6 8 6M4.983 25C2.212 28.006 2 34 8 36c-3 5 1.37 9 6 9 .99 3.975 5 4 6.997 4C23.278 49 25 47.32 25 45c0-6.001 0-28.343 0-38.342C25 2.14 23.684 1 20.997 1c-6.006 0-9.31 3.564-10.009 6C5.045 7.724.104 14.875 4.983 25z" />
  <path fill="none" stroke="#FFA300" stroke-linecap="round" stroke-width="2" d="M17 24c0 0-2.096-2-6-2-3.406 0-6.017 3-6.017 3M16.994 38.999C16.994 38 17 32 10.988 31M18.994 11c0 1-.994 4-5.994 4M36 44c-3-1-5-3-5-7" />
</svg>