<?xml version="1.0" encoding="utf-8"?>
<svg xmlns="http://www.w3.org/2000/svg" viewBox="0 0 50 50" width="100" height="100">
  <path d="M29 13.990000000000002A3 2.988 0 1 0 29 19.966A3 2.988 0 1 0 29 13.990000000000002Z" fill="#FFA300" />
  <path d="M48.99,16.875c0-2.216-1.099-3.667-3.289-4.324c-0.776-2.468-2.979-4.26-5.556-4.519C38.857,5.63,36.114,4,33.25,4c-1.606,0-2.755,0.131-4.099,0.785C27.675,3.555,25.898,3,23.5,3c-2.068,0-3.542,0.826-4.707,1.76C17.874,4.255,16.812,4,15.625,4c-2.234,0-4.02,1.01-5.315,3.004c-0.095,0-0.186,0-0.266-0.003C8.241,6.92,6.526,7.58,5.195,8.853c-1.301,1.246-2.085,2.96-2.186,4.814c-1.223,0.831-2,2.297-2,3.833c0,1.251,0.544,2.567,1.385,3.491C1.487,21.89,1.01,23.013,1.01,24.25c0,1.719,0.726,3.157,1.99,3.97V29c0,3.401,2.338,5.971,5.447,6c0.481,0.943,1.314,1.592,2.381,1.861l-1.6,8.837l0,0L8.993,47h5.998c0.119-0.531,0.229-1.007,0.229-1.007c0.132-0.529,0.34-1.234,0.649-1.993c0.919-2.26,2.734-5,6.131-5c3.473,0,6.393-2.613,6.917-6H29c1.671,0,3.439-1.053,4.381-2.458C33.892,30.813,34.532,31,35.375,31c1.433,0,2.572-0.704,3.269-2h0.606c2.583,0,3.843-0.982,4.454-2.005c3.9-0.132,5.286-2.612,5.286-4.745c0-1.314-0.358-2.214-0.719-2.78C48.619,18.949,48.99,18.145,48.99,16.875z M24,26h-2.099c-0.129,0.642-0.382,1.238-0.732,1.765l1.488,1.483l-1.412,1.416l-1.491-1.486c-0.525,0.347-1.116,0.601-1.753,0.73V32h-2v-2.092c-0.637-0.13-1.229-0.383-1.753-0.73l-1.491,1.486l-1.412-1.416l1.488-1.483c-0.35-0.528-0.604-1.124-0.732-1.765H10v-2h2.107c0.131-0.625,0.382-1.206,0.724-1.722l-1.488-1.483l1.412-1.416l1.491,1.486c0.525-0.347,1.116-0.601,1.753-0.73v-2.091h2v2.091c0.637,0.13,1.229,0.383,1.753,0.73l1.491-1.486l1.412,1.416l-1.488,1.483c0.342,0.516,0.593,1.096,0.724,1.722H24V26z M36,18h-2.107c-0.131,0.625-0.382,1.206-0.724,1.722l1.488,1.483l-1.412,1.416l-1.491-1.486c-0.525,0.347-1.116,0.601-1.753,0.73v2.091h-2v-2.091c-0.637-0.13-1.229-0.383-1.753-0.73l-1.491,1.486l-1.412-1.416l1.488-1.483c-0.342-0.516-0.593-1.096-0.724-1.722H22v-2h2.099c0.129-0.642,0.382-1.238,0.732-1.765l-1.488-1.483l1.412-1.416l1.491,1.486c0.525-0.347,1.116-0.601,1.753-0.73V10h2v2.092c0.637,0.13,1.229,0.383,1.753,0.73l1.491-1.486l1.412,1.416l-1.488,1.483c0.35,0.528,0.604,1.124,0.732,1.765H36V18z" fill="#FFA300" />
  <path d="M17 22.034A3 2.988 0 1 0 17 28.009999999999998A3 2.988 0 1 0 17 22.034Z" fill="#FFA300" />
</svg>